<?xml version="1.0" encoding="UTF-8"?><svg id="Layer_1" xmlns="http://www.w3.org/2000/svg" viewBox="0 0 903.84 214.15"><g><g><path d="M339.83,29.71V97.18c0,20-8.04,30.65-23.92,30.65-18.5,0-23.36-13.08-23.36-30.65V29.9C292.55,11.4,299.65,0,316.47,0,334.41,0,339.83,14.39,339.83,29.71Zm-39.99,.56V97.18c0,17.75,6.54,24.11,16.45,24.11s16.07-6.35,16.07-25.04V30.46c0-16.63-6.17-23.92-16.26-23.92-11.21,0-16.26,7.1-16.26,23.73Z" style="fill:#fbbc0f;"/><path d="M490.46,68.4c0-24.48,.56-47.47,.93-59.8h-.19c-3.36,20.18-15.51,79.62-23.55,117.74h-7.66c-6.17-31.77-18.88-96.06-22.05-117.74h-.37c.37,14.39,1.12,42.8,1.12,64.1v53.64h-7.1V1.5h10.47c8.97,42.24,20.37,98.3,22.05,112.69h.19c1.87-13.46,14.2-73.07,22.99-112.69h10.65V126.34h-7.48v-57.94Z" style="fill:#fbbc0f;"/><path d="M628.57,62.42h-28.59v57.38h31.96l-1.12,6.54h-37.94V1.5h37.38v6.54h-30.28V55.69h28.59v6.73Z" style="fill:#fbbc0f;"/><path d="M763.49,126.34h-5.98c-.19-1.87-.56-9.34-.56-12.33-2.8,10.28-9.72,13.83-17.94,13.83-16.07,0-21.49-12.15-21.49-30.84V30.65C717.52,10.09,726.12,0,741.25,0,758.45,0,763.49,11.4,763.49,29.71v2.43h-7.1v-2.06c0-10.84-1.12-23.55-15.33-23.55-10.47,0-16.26,6.17-16.26,24.67V96.06c0,14.58,3.55,25.23,14.95,25.23,14.58,0,16.45-14.2,16.45-33.45v-21.49h-16.82v-6.54h24.11V126.34Z" style="fill:#fbbc0f;"/><path d="M865.34,79.99l-7.66,46.35h-7.1L871.51,1.5h10.47l21.87,124.84h-7.66l-7.85-46.35h-22.99Zm21.68-6.73c-5.79-33.83-9.34-56.25-10.28-65.6h-.37c-.37,8.97-5.61,38.31-9.91,65.6h20.56Z" style="fill:#fbbc0f;"/></g><g><path d="M299.59,194.32l-3.08,19.18h-3.97l8.98-54.06h5.75l9.39,54.06h-4.21l-3.24-19.18h-9.63Zm9.06-3.64c-2.35-13.76-3.8-23.31-4.29-27.76h-.16c-.16,3.97-2.35,16.59-4.05,27.76h8.5Z" style="fill:#0b0b12;"/><path d="M357.7,159.44v42.65c0,4.78,1.78,8.42,6.39,8.42s6.39-3.16,6.39-8.34v-42.73h4.05v42.49c0,8.26-3.72,12.22-10.52,12.22s-10.28-3.88-10.28-12.06v-42.65h3.97Z" style="fill:#0b0b12;"/><path d="M419.29,163.08h-8.82v-3.64h21.45v3.64h-8.66v50.42h-3.97v-50.42Z" style="fill:#0b0b12;"/><path d="M488.25,171.98v28.65c0,8.9-3.56,13.52-10.85,13.52-8.09,0-10.52-5.5-10.52-13.52v-28.57c0-8.42,3.48-13.27,10.76-13.27,7.85,0,10.6,5.91,10.6,13.19Zm-17.32,.08v28.65c0,7.2,2.59,9.87,6.64,9.87,4.29,0,6.64-2.67,6.64-10.2v-28.25c0-6.72-2.43-9.71-6.72-9.71s-6.56,2.83-6.56,9.63Z" style="fill:#0b0b12;"/><path d="M529.12,159.44l4.05,25.82c1.29,7.69,3.16,18.05,3.64,23.23h.08c.4-5.1,2.35-15.46,3.56-23.07l4.37-25.98h4.21l-9.63,54.06h-5.18l-9.39-54.06h4.29Z" style="fill:#0b0b12;"/><path d="M602.77,186.31h-12.3v23.55h13.84l-.57,3.64h-17.24v-54.06h17v3.64h-13.03v19.59h12.3v3.64Z" style="fill:#0b0b12;"/><path d="M641.7,159.44h8.01c8.09,0,11.49,3.64,11.49,12.06v2.75c0,6.64-2.02,10.28-5.5,11.41,3.56,1.13,5.02,3.97,5.02,11.09,0,4.69-.08,13.27,.57,16.75h-3.89c-.65-3.48-.57-12.71-.57-16.35,0-7.28-1.13-9.63-6.8-9.63h-4.37v25.98h-3.97v-54.06Zm3.97,24.6h4.69c5.67,0,6.8-3.89,6.8-9.63v-2.75c0-5.5-1.7-8.74-7.61-8.74h-3.88v21.12Z" style="fill:#0b0b12;"/><path d="M700.54,159.44h3.97v23.15h12.87v-23.15h3.97v54.06h-3.97v-27.27h-12.87v27.27h-3.97v-54.06Z" style="fill:#0b0b12;"/><path d="M765.77,159.44v42.65c0,4.78,1.78,8.42,6.39,8.42s6.39-3.16,6.39-8.34v-42.73h4.05v42.49c0,8.26-3.72,12.22-10.52,12.22s-10.28-3.88-10.28-12.06v-42.65h3.97Z" style="fill:#0b0b12;"/><path d="M826.87,159.44v42.65c0,4.78,1.78,8.42,6.39,8.42s6.39-3.16,6.39-8.34v-42.73h4.05v42.49c0,8.26-3.72,12.22-10.52,12.22s-10.28-3.88-10.28-12.06v-42.65h3.97Z" style="fill:#0b0b12;"/><path d="M884.25,159.44h8.01c8.09,0,11.49,3.64,11.49,12.06v2.75c0,6.64-2.02,10.28-5.5,11.41,3.56,1.13,5.02,3.97,5.02,11.09,0,4.69-.08,13.27,.57,16.75h-3.89c-.65-3.48-.57-12.71-.57-16.35,0-7.28-1.13-9.63-6.8-9.63h-4.37v25.98h-3.97v-54.06Zm3.97,24.6h4.69c5.67,0,6.8-3.89,6.8-9.63v-2.75c0-5.5-1.7-8.74-7.61-8.74h-3.88v21.12Z" style="fill:#0b0b12;"/></g></g><g><path d="M117.4,93.84c-10.02,0-18.06,8.44-17.42,18.59,.55,8.69,7.63,15.76,16.32,16.3,10.14,.62,18.56-7.42,18.56-17.43s-7.82-17.46-17.46-17.46h0Zm40.95-4.52c-38.79-9.2-66.11-4.09-85.47,1.13-.67,.34-1.26,.95-1.76,1.77-1.6,2.6-2.29,7.07-2.16,12.23,.14,5.29,1.15,11.23,2.95,16.61,1.89,5.66,4.63,10.66,8.09,13.51,3.34,2.06,6.24,4.3,8.18,6.48,3.48,3.9,8.56,11.91,12.09,20.81,.62,1.57,2.13,2.61,3.82,2.61h26.81c1.7,0,3.22-1.05,3.83-2.65,3.42-8.94,8.4-17.78,13.58-22.44,1.6-1.44,4.16-3.23,7.31-5.07,3.75-2.91,6.72-8.28,8.71-14.31,1.72-5.2,2.7-10.85,2.84-15.86,.14-4.89-.5-9.12-2.02-11.61-.59-.98-1.32-1.66-2.18-1.94v-.02c-1.64-.49-3.19-.93-4.63-1.27h0Z" style="fill:#fbbc0f; fill-rule:evenodd;"/><path d="M231.27,161.54c-.24,1.68-.39,3.39-.72,5.06-1.84,9.27-6.84,13.97-16.66,15.44-3.45,.52-6.96,.8-10.45,.82-8.26,.05-16.52,.05-24.78,.05,25.96-16.89,42.88-45.01,42.88-79.45C221.53,46.41,175.12,0,118.07,0S14.61,46.41,14.61,103.46c0,34.13,17.18,62.35,43.07,79.46-7.95,0-15.9,0-23.86-.05-3.49-.02-7-.31-10.45-.82-9.82-1.47-14.82-6.17-16.66-15.44-.33-1.67-.49-3.38-.72-5.06H0v48.5c0,2.27,1.84,4.11,4.11,4.11H94.24c-.08-1.31-1.45-4.95-1.91-12.24-.13-2.1-.01-3.31,.16-4.38,.63-3.39,2.03-7.1,3.56-9.98,.84-1.59-.01-3.54-1.74-4.05-30.22-8.99-53.32-34.66-58.59-66.3,9.55-2.08,23.45,.19,23.45,.19-1.61-5.9,0-25.2,0-25.2-6.72-1.35-17-5.34-22.45-7.57C45.38,47.41,79.1,19.66,118.73,19.97c39.27,.3,72.18,27.86,80.69,64.66-5.44,2.23-15.73,6.23-22.46,7.57,0,0,1.61,19.3,0,25.2,0,0,13.91-2.27,23.47-.19-5.23,31.44-28.1,57-58.06,66.13-1.84,.56-2.64,2.78-1.54,4.35,1.6,2.29,2.81,4.84,3.53,7.57,.29,2.07,.78,3.08,.56,6.65-.46,7.29-1.83,10.93-1.91,12.24h90.13c2.27,0,4.11-1.84,4.11-4.11v-48.5h-5.99Z" style="fill:#0b0b12;"/></g></svg>