<?xml version="1.0" encoding="UTF-8"?><svg id="Layer_1" xmlns="http://www.w3.org/2000/svg" viewBox="0 0 1200 1200"><g><path d="M148.55,715.57v114.51c0,33.94-13.64,52.02-40.6,52.02-31.4,0-39.65-22.2-39.65-52.02v-114.19c0-31.4,12.05-50.75,40.6-50.75,30.45,0,39.65,24.42,39.65,50.43Zm-67.88,.95v113.56c0,30.13,11.1,40.92,27.91,40.92s27.28-10.78,27.28-42.5v-111.65c0-28.23-10.47-40.6-27.6-40.6-19.03,0-27.6,12.05-27.6,40.28Z" style="fill:#fbbc0f;"/><path d="M404.2,781.23c0-41.55,.95-80.57,1.59-101.5h-.32c-5.71,34.26-26.33,135.12-39.97,199.83h-13c-10.47-53.92-32.04-163.04-37.43-199.83h-.63c.63,24.42,1.9,72.64,1.9,108.8v91.03h-12.05v-211.88h17.76c15.23,71.68,34.57,166.84,37.43,191.27h.32c3.17-22.84,24.11-124.02,39.01-191.27h18.08v211.88h-12.69v-98.33Z" style="fill:#fbbc0f;"/><path d="M638.59,771.08h-48.53v97.38h54.24l-1.9,11.1h-64.39v-211.88h63.44v11.1h-51.39v80.88h48.53v11.42Z" style="fill:#fbbc0f;"/><path d="M867.59,879.56h-10.15c-.32-3.17-.95-15.86-.95-20.93-4.76,17.45-16.49,23.47-30.45,23.47-27.28,0-36.48-20.62-36.48-52.34v-112.6c0-34.89,14.59-52.02,40.28-52.02,29.18,0,37.74,19.35,37.74,50.43v4.12h-12.05v-3.49c0-18.4-1.9-39.97-26.01-39.97-17.76,0-27.59,10.47-27.59,41.87v110.06c0,24.74,6.03,42.82,25.38,42.82,24.74,0,27.91-24.11,27.91-56.78v-36.48h-28.55v-11.1h40.92v112.92Z" style="fill:#fbbc0f;"/><path d="M1040.45,800.9l-13,78.66h-12.05l35.53-211.88h17.76l37.11,211.88h-13l-13.32-78.66h-39.01Zm36.79-11.42c-9.83-57.41-15.86-95.47-17.44-111.33h-.63c-.63,15.23-9.52,65.02-16.81,111.33h34.89Z" style="fill:#fbbc0f;"/></g><g><path d="M77.1,995.61l-5.28,32.91h-6.8l15.41-92.75h9.86l16.11,92.75h-7.22l-5.55-32.91h-16.52Zm15.55-6.25c-4.03-23.61-6.53-39.99-7.36-47.63h-.28c-.28,6.8-4.03,28.46-6.94,47.63h14.58Z" style="fill:#090813;"/><path d="M176.8,935.76v73.18c0,8.19,3.05,14.44,10.97,14.44s10.97-5.42,10.97-14.3v-73.32h6.94v72.9c0,14.16-6.39,20.97-18.05,20.97s-17.63-6.67-17.63-20.69v-73.18h6.8Z" style="fill:#090813;"/><path d="M282.47,942.01h-15.14v-6.25h36.8v6.25h-14.86v86.51h-6.8v-86.51Z" style="fill:#090813;"/><path d="M400.78,957.28v49.15c0,15.27-6.11,23.19-18.61,23.19-13.89,0-18.05-9.44-18.05-23.19v-49.02c0-14.44,5.97-22.77,18.47-22.77,13.47,0,18.19,10.14,18.19,22.63Zm-29.71,.14v49.15c0,12.36,4.44,16.94,11.39,16.94,7.36,0,11.39-4.58,11.39-17.5v-48.46c0-11.52-4.17-16.66-11.52-16.66s-11.25,4.86-11.25,16.52Z" style="fill:#090813;"/><path d="M470.9,935.76l6.94,44.29c2.22,13.19,5.42,30.96,6.25,39.85h.14c.69-8.75,4.03-26.52,6.11-39.57l7.5-44.57h7.22l-16.52,92.75h-8.89l-16.11-92.75h7.36Z" style="fill:#090813;"/><path d="M597.27,981.86h-21.11v40.41h23.74l-.97,6.25h-29.58v-92.75h29.16v6.25h-22.36v33.6h21.11v6.25Z" style="fill:#090813;"/><path d="M664.06,935.76h13.75c13.89,0,19.72,6.25,19.72,20.69v4.72c0,11.39-3.47,17.63-9.44,19.58,6.11,1.94,8.61,6.8,8.61,19.02,0,8.05-.14,22.77,.97,28.74h-6.67c-1.11-5.97-.97-21.8-.97-28.05,0-12.5-1.94-16.52-11.66-16.52h-7.5v44.57h-6.8v-92.75Zm6.8,42.21h8.05c9.72,0,11.66-6.67,11.66-16.52v-4.72c0-9.44-2.92-15-13.05-15h-6.67v36.24Z" style="fill:#090813;"/><path d="M765.01,935.76h6.8v39.71h22.08v-39.71h6.8v92.75h-6.8v-46.79h-22.08v46.79h-6.8v-92.75Z" style="fill:#090813;"/><path d="M876.93,935.76v73.18c0,8.19,3.05,14.44,10.97,14.44s10.97-5.42,10.97-14.3v-73.32h6.94v72.9c0,14.16-6.39,20.97-18.05,20.97s-17.63-6.67-17.63-20.69v-73.18h6.8Z" style="fill:#090813;"/><path d="M981.77,935.76v73.18c0,8.19,3.06,14.44,10.97,14.44s10.97-5.42,10.97-14.3v-73.32h6.94v72.9c0,14.16-6.39,20.97-18.05,20.97s-17.63-6.67-17.63-20.69v-73.18h6.8Z" style="fill:#090813;"/><path d="M1080.22,935.76h13.75c13.89,0,19.72,6.25,19.72,20.69v4.72c0,11.39-3.47,17.63-9.44,19.58,6.11,1.94,8.61,6.8,8.61,19.02,0,8.05-.14,22.77,.97,28.74h-6.67c-1.11-5.97-.97-21.8-.97-28.05,0-12.5-1.94-16.52-11.66-16.52h-7.5v44.57h-6.8v-92.75Zm6.8,42.21h8.05c9.72,0,11.66-6.67,11.66-16.52v-4.72c0-9.44-2.92-15-13.05-15h-6.67v36.24Z" style="fill:#090813;"/></g><g><path d="M585.52,326.44c-22.99,0-41.45,19.36-39.99,42.66,1.25,19.95,17.5,36.18,37.45,37.4,23.28,1.43,42.6-17.02,42.6-39.99s-17.94-40.07-40.07-40.07h0Zm93.97-10.37c-89.02-21.12-151.72-9.38-196.15,2.59-1.53,.78-2.89,2.18-4.05,4.07-3.67,5.97-5.26,16.24-4.95,28.06,.31,12.13,2.64,25.77,6.77,38.11,4.34,12.98,10.63,24.45,18.57,31.01,7.67,4.72,14.31,9.87,18.77,14.88,7.98,8.96,19.65,27.34,27.74,47.75,1.43,3.61,4.89,6,8.77,6h61.54c3.91,0,7.4-2.42,8.8-6.07,7.86-20.52,19.29-40.8,31.16-51.5,3.68-3.31,9.55-7.41,16.78-11.63,8.61-6.68,15.41-19,19.98-32.84,3.94-11.93,6.19-24.9,6.51-36.39,.32-11.22-1.15-20.92-4.63-26.64-1.36-2.24-3.03-3.8-4.99-4.45v-.04c-3.76-1.13-7.33-2.13-10.63-2.92h0Z" style="fill:#fbbc0f; fill-rule:evenodd;"/><g><path d="M391.92,301.78s38.17,16.54,59.97,20.91c0,0-3.69,44.29,0,57.82,0,0-41.83-6.83-62.6,2.32-20.78,9.16,2.63-81.06,2.63-81.06Z" style="fill:#090813; fill-rule:evenodd;"/><path d="M782.17,301.78s-38.17,16.54-59.97,20.91c0,0,3.69,44.29,0,57.82,0,0,41.83-6.83,62.6,2.32,20.78,9.16-2.63-81.06-2.63-81.06Z" style="fill:#090813; fill-rule:evenodd;"/></g><path d="M527.88,530.83h-32.47s0,0,0,0c-33.9,0-67.79,.12-101.69-.08-8-.05-16.06-.7-23.98-1.89-22.54-3.37-34.01-14.16-38.24-35.42-.76-3.84-1.12-7.76-1.66-11.62h-13.73v111.3c0,5.2,4.22,9.42,9.42,9.42h206.84c-.18-3-3.33-11.35-4.38-28.09s4.38-9.46-.1-43.62Z" style="fill:#090813;"/><path d="M587.05,111.1c-130.92,0-237.43,106.51-237.43,237.43,0,109.7,77.35,192.83,178.62,216.47,1.4-7.93,4.7-16.71,8.28-23.48,1.94-3.65-.03-8.12-4-9.3-80.43-23.91-138.91-99.31-137.04-187.82,2.21-104.33,88.72-188.27,193.06-187.46,104.96,.81,190.1,86.45,190.1,191.6,0,86.26-57.3,159.38-135.84,183.31-4.23,1.29-6.06,6.37-3.52,9.99,4.55,6.49,7.71,13.89,9.12,21.83,101.27-23.63,176.06-105.43,176.06-215.13,0-130.92-106.51-237.43-237.43-237.43Z" style="fill:#090813;"/><path d="M648.78,530.83h32.47s0,0,0,0c33.9,0,67.79,.12,101.69-.08,8-.05,16.06-.7,23.98-1.89,22.54-3.37,34.01-14.16,38.24-35.42,.76-3.84,1.12-7.76,1.66-11.62h13.73v111.3c0,5.2-4.22,9.42-9.42,9.42h-206.84c.18-3,3.33-11.35,4.38-28.09,1.01-16.12-4.38-9.46,.1-43.62Z" style="fill:#090813;"/></g></svg>